# File created by Blade
# Date/Time:  Wed Sep 24 20:26:02 2014
# Frame Rate: 120.000 fps
#------------------------------------------------------
:FULLY-SPECIFIED
:DEGREES
986
root -6.195888 33.381677 -7.405107 294.477827 -85.097395 -283.373166
Spine -11.228930 8.420637 4.954347
Head -9.140369 5.771673 -1.985806
LeftShoulder -16.375893 22.602190 4.734522
LeftArm 22.047365 6.887135 -53.243305
LeftForeArm 5.908563 -0.000000 14.687686
LeftHand -26.020346 0.000000 -2.054274
LeftHandThumb1 -26.253704 0.000000 33.147579
RightShoulder -20.183449 8.488393 -32.105361
RightArm -18.870403 -16.397922 78.672915
RightForeArm -27.832691 -0.000000 17.841623
RightHand -6.945646 0.000000 13.488564
RightHandThumb1 -24.326973 -0.000000 -32.862282
LeftUpLeg -8.879040 6.191802 -0.715436
LeftLeg 2.030230 -0.000000 -0.000000
LeftFoot -6.082833 8.734401 -19.645752
LeftToeBase -5.790109 -0.000000 0.000000
RightUpLeg -1.346571 -10.346050 -2.399339
RightLeg -0.526196 -0.000000 0.000000
RightFoot -10.351560 8.057978 8.563787
RightToeBase 1.225589 -0.000000 -0.000000
987
root -6.179023 33.393804 -7.421294 292.667328 -85.039348 -281.721235
Spine -11.167109 8.570207 5.022671
Head -9.100119 5.980052 -2.051583
LeftShoulder -16.603520 22.793265 4.862693
LeftArm 22.162995 6.373099 -52.645427
LeftForeArm 5.654223 0.000000 14.762179
LeftHand -26.133178 -0.000000 -0.680279
LeftHandThumb1 -26.253704 0.000000 33.147579
RightShoulder -20.072855 8.496222 -32.151501
RightArm -18.837350 -16.332571 77.759530
RightForeArm -27.849273 -0.000000 18.054002
RightHand -7.130207 0.000000 13.301423
RightHandThumb1 -24.326973 -0.000000 -32.862282
LeftUpLeg -8.695114 6.352175 -0.823561
LeftLeg 1.978384 -0.000000 -0.000000
LeftFoot -5.953515 8.891317 -19.409613
LeftToeBase -5.966829 -0.000000 0.000000
RightUpLeg -1.294615 -10.665553 -2.491808
RightLeg -0.388444 -0.000000 0.000000
RightFoot -10.322561 8.431791 8.717481
RightToeBase 1.080368 -0.000000 -0.000000
988
root -6.159159 33.407169 -7.432072 291.043017 -84.954918 -280.239150
Spine -11.079962 8.735453 5.117111
Head -9.089506 6.217790 -2.203564
LeftShoulder -16.806469 22.938523 4.894912
LeftArm 22.272459 5.908519 -52.002345
LeftForeArm 5.274859 0.000000 14.854095
LeftHand -26.423816 -0.000000 0.749561
LeftHandThumb1 -26.253704 0.000000 33.147579
RightShoulder -20.035005 8.566842 -32.293140
RightArm -18.843231 -16.346804 76.950150
RightForeArm -27.744995 0.000000 18.216935
RightHand -7.244331 -0.000000 12.934837
RightHandThumb1 -24.326973 -0.000000 -32.862282
LeftUpLeg -8.548901 6.494364 -0.966308
LeftLeg 1.946139 -0.000000 -0.000000
LeftFoot -5.955780 9.034959 -19.252673
LeftToeBase -6.017235 -0.000000 0.000000
RightUpLeg -1.253774 -11.003614 -2.624262
RightLeg -0.259000 -0.000000 0.000000
RightFoot -10.256933 8.913169 8.864185
RightToeBase 0.992969 -0.000000 -0.000000
989
root -6.134063 33.421484 -7.443289 289.523600 -84.846023 -278.824785
Spine -11.068812 8.872825 5.124234
Head -9.043447 6.495331 -2.260034
LeftShoulder -16.926572 23.080368 5.038015
LeftArm 22.259777 5.306908 -51.557792
LeftForeArm 5.142288 -0.000000 14.970002
LeftHand -26.758957 -0.000000 1.941281
LeftHandThumb1 -26.253704 0.000000 33.147579
RightShoulder -19.880741 8.613131 -32.332546
RightArm -18.852972 -16.306121 76.152505
RightForeArm -27.680321 -0.000000 18.325947
RightHand -7.434052 -0.000000 12.644909
RightHandThumb1 -24.326973 -0.000000 -32.862282
LeftUpLeg -8.474285 6.615884 -1.121760
LeftLeg 1.939830 -0.000000 -0.000000
LeftFoot -6.001290 9.144873 -19.333585
LeftToeBase -6.052289 -0.000000 0.000000
RightUpLeg -1.249601 -11.254395 -2.776077
RightLeg -0.147026 -0.000000 0.000000
RightFoot -10.207274 9.368840 9.121610
RightToeBase 1.090813 -0.000000 -0.000000
990
root -6.115659 33.436280 -7.445320 287.678890 -84.681921 -277.126529
Spine -10.989387 9.057448 5.097993
Head -8.959388 6.892258 -2.327356
LeftShoulder -17.082082 23.206386 5.130906
LeftArm 22.339164 4.904332 -51.062001
LeftForeArm 4.822486 0.000000 15.134395
LeftHand -27.130350 -0.000000 3.140602
LeftHandThumb1 -26.253704 0.000000 33.147579
RightShoulder -19.789621 8.598121 -32.407385
RightArm -18.803081 -16.229971 75.401617
RightForeArm -27.665126 -0.000000 18.428088
RightHand -7.565826 0.000000 12.482050
RightHandThumb1 -24.326973 -0.000000 -32.862282
LeftUpLeg -8.345325 6.748587 -1.343123
LeftLeg 1.913724 -0.000000 -0.000000
LeftFoot -5.996042 9.253888 -19.416994
LeftToeBase -6.094686 -0.000000 0.000000
RightUpLeg -1.181593 -11.475137 -3.021595
RightLeg -0.056271 -0.000000 0.000000
RightFoot -10.094153 9.816409 9.260456
RightToeBase 0.818005 -0.000000 -0.000000
991
root -6.087968 33.451324 -7.450422 285.984679 -84.550680 -275.498999
Spine -10.961861 9.202849 5.134285
Head -8.944830 7.464689 -2.484213
LeftShoulder -17.305615 23.366731 5.168437
LeftArm 22.436987 4.451185 -50.683958
LeftForeArm 4.458404 0.000000 15.376318
LeftHand -27.630553 0.000000 4.317578
LeftHandThumb1 -26.253704 0.000000 33.147579
RightShoulder -19.682918 8.619458 -32.541616
RightArm -18.769530 -16.262425 74.785475
RightForeArm -27.542839 -0.000000 18.512340
RightHand -7.804055 0.000000 12.105323
RightHandThumb1 -24.326973 -0.000000 -32.862282
LeftUpLeg -8.325915 6.844175 -1.524887
LeftLeg 1.904043 -0.000000 -0.000000
LeftFoot -6.018804 9.354557 -19.483487
LeftToeBase -5.998674 -0.000000 0.000000
RightUpLeg -1.187123 -11.617915 -3.208282
RightLeg -0.031696 -0.000000 0.000000
RightFoot -9.923981 10.206661 9.566039
RightToeBase 0.450573 -0.000000 -0.000000
992
root -6.057201 33.466764 -7.453001 284.447129 -84.383708 -274.019938
Spine -10.915804 9.367858 5.122982
Head -8.928841 8.175705 -2.609589
LeftShoulder -17.458500 23.385442 5.218497
LeftArm 22.395087 3.984088 -50.370127
LeftForeArm 4.464311 -0.000000 15.614436
LeftHand -27.706791 -0.000000 5.520945
LeftHandThumb1 -26.253704 0.000000 33.147579
RightShoulder -19.619147 8.638655 -32.652562
RightArm -18.712359 -16.355172 74.218676
RightForeArm -27.405501 -0.000000 18.519626
RightHand -7.912137 -0.000000 11.735218
RightHandThumb1 -24.326973 -0.000000 -32.862282
LeftUpLeg -8.324798 6.906261 -1.728951
LeftLeg 1.885076 -0.000000 -0.000000
LeftFoot -5.985978 9.404805 -19.492538
LeftToeBase -6.031194 -0.000000 0.000000
RightUpLeg -1.218122 -11.736321 -3.415769
RightLeg 0.013388 -0.000000 -0.000000
RightFoot -9.828653 10.449101 9.708682
RightToeBase -0.069711 -0.000000 0.000000
993
root -6.031727 33.483934 -7.448286 282.611294 -84.180199 -272.284739
Spine -10.816343 9.531717 5.103302
Head -8.846931 9.165042 -2.701140
LeftShoulder -17.674077 23.429704 5.181878
LeftArm 22.413158 3.542847 -50.097317
LeftForeArm 4.539963 0.000000 15.959201
LeftHand -28.281353 -0.000000 6.708771
LeftHandThumb1 -26.253704 0.000000 33.147579
RightShoulder -19.517284 8.636816 -32.755862
RightArm -18.643491 -16.430450 73.704863
RightForeArm -27.293404 -0.000000 18.548639
RightHand -8.054297 -0.000000 11.359396
RightHandThumb1 -24.326973 -0.000000 -32.862282
LeftUpLeg -8.260280 7.006383 -1.973020
LeftLeg 1.830980 -0.000000 -0.000000
LeftFoot -5.859730 9.419954 -19.442159
LeftToeBase -6.048644 -0.000000 0.000000
RightUpLeg -1.169650 -11.809558 -3.689046
RightLeg -0.005755 -0.000000 0.000000
RightFoot -9.746960 10.678293 10.008137
RightToeBase -0.214390 -0.000000 0.000000
994
root -5.999871 33.500495 -7.445979 281.064499 -83.996098 -270.797168
Spine -10.733994 9.687252 5.101825
Head -8.826452 10.395480 -2.817556
LeftShoulder -17.869139 23.411021 5.188351
LeftArm 22.363096 3.079888 -50.000112
LeftForeArm 4.621600 -0.000000 16.376917
LeftHand -28.642495 -0.000000 7.904874
LeftHandThumb1 -26.253704 0.000000 33.147579
RightShoulder -19.422171 8.698154 -32.845547
RightArm -18.651101 -16.591735 73.249992
RightForeArm -27.176095 -0.000000 18.612404
RightHand -8.118406 -0.000000 11.153183
RightHandThumb1 -24.326973 -0.000000 -32.862282
LeftUpLeg -8.269066 7.066599 -2.177648
LeftLeg 1.809936 -0.000000 -0.000000
LeftFoot -5.728026 9.415737 -19.291923
LeftToeBase -6.026642 -0.000000 0.000000
RightUpLeg -1.171255 -11.794199 -3.916352
RightLeg -0.019110 -0.000000 0.000000
RightFoot -9.639437 10.808060 10.296698
RightToeBase -0.384515 -0.000000 0.000000
995
root -5.967679 33.516816 -7.441179 279.614248 -83.794886 -269.412764
Spine -10.611687 9.886841 5.089503
Head -8.814783 11.774635 -2.910190
LeftShoulder -18.033621 23.433387 5.164702
LeftArm 22.392375 2.711736 -49.919691
LeftForeArm 4.707472 -0.000000 16.748160
LeftHand -29.035620 -0.000000 9.187389
LeftHandThumb1 -26.253704 0.000000 33.147579
RightShoulder -19.417469 8.710042 -32.934904
RightArm -18.596184 -16.753252 72.828542
RightForeArm -27.142630 -0.000000 18.667470
RightHand -8.191732 0.000000 11.033503
RightHandThumb1 -24.326973 -0.000000 -32.862282
LeftUpLeg -8.269960 7.022255 -2.374329
LeftLeg 1.770973 -0.000000 -0.000000
LeftFoot -5.601108 9.406896 -19.260274
LeftToeBase -5.925467 -0.000000 0.000000
RightUpLeg -1.154764 -11.836762 -4.155664
RightLeg -0.056902 -0.000000 0.000000
RightFoot -9.522676 10.957030 10.500390
RightToeBase -0.603045 -0.000000 0.000000
996
root -5.934591 33.532000 -7.436158 278.038585 -83.589463 -267.916801
Spine -10.467320 10.062646 5.071081
Head -8.738013 13.424157 -2.908049
LeftShoulder -18.176829 23.319338 5.214645
LeftArm 22.287499 2.415193 -49.990699
LeftForeArm 4.893827 -0.000000 17.156848
LeftHand -29.368776 0.000000 10.295037
LeftHandThumb1 -26.253704 0.000000 33.147579
RightShoulder -19.297820 8.783815 -32.957986
RightArm -18.622762 -16.925528 72.443738
RightForeArm -27.202725 -0.000000 18.712687
RightHand -8.121012 0.000000 11.159741
RightHandThumb1 -24.326973 -0.000000 -32.862282
LeftUpLeg -8.257247 6.961601 -2.553541
LeftLeg 1.733550 -0.000000 -0.000000
LeftFoot -5.441704 9.358074 -19.275686
LeftToeBase -5.904092 -0.000000 0.000000
RightUpLeg -1.127717 -11.838199 -4.388514
RightLeg -0.098807 -0.000000 0.000000
RightFoot -9.453372 11.017320 10.635462
RightToeBase -0.812241 -0.000000 0.000000
997
root -5.905373 33.546884 -7.430288 276.764811 -83.358262 -266.742334
Spine -10.317748 10.236456 5.030202
Head -8.656507 15.205419 -2.948667
LeftShoulder -18.296913 23.380465 5.230632
LeftArm 22.345688 2.158040 -50.098258
LeftForeArm 5.045506 -0.000000 17.493360
LeftHand -29.676206 -0.000000 11.209349
LeftHandThumb1 -26.253704 0.000000 33.147579
RightShoulder -19.189294 8.821914 -32.967449
RightArm -18.629891 -17.072083 72.118609
RightForeArm -27.318696 -0.000000 18.710219
RightHand -8.073327 -0.000000 11.294000
RightHandThumb1 -24.326973 -0.000000 -32.862282
LeftUpLeg -8.227448 6.921242 -2.746750
LeftLeg 1.672662 -0.000000 -0.000000
LeftFoot -5.187931 9.229454 -19.142585
LeftToeBase -5.872942 -0.000000 0.000000
RightUpLeg -1.056417 -11.950118 -4.644115
RightLeg -0.168863 -0.000000 0.000000
RightFoot -9.355857 11.168187 10.818667
RightToeBase -1.003242 -0.000000 0.000000
998
root -5.866802 33.562004 -7.422198 275.565655 -83.097308 -265.603665
Spine -10.145121 10.437106 4.930874
Head -8.537446 17.143669 -2.872548
LeftShoulder -18.417294 23.266061 5.275745
LeftArm 22.382493 2.075322 -50.231785
LeftForeArm 5.105302 0.000000 17.743401
LeftHand -29.928444 -0.000000 12.324933
LeftHandThumb1 -26.253704 0.000000 33.147579
RightShoulder -19.153700 8.879022 -32.940369
RightArm -18.616459 -17.293500 71.838236
RightForeArm -27.383437 -0.000000 18.687374
RightHand -7.991883 -0.000000 11.558572
RightHandThumb1 -24.326973 -0.000000 -32.862282
LeftUpLeg -8.264608 6.803154 -2.958780
LeftLeg 1.651629 -0.000000 -0.000000
LeftFoot -4.904508 9.195184 -18.943408
LeftToeBase -5.929212 -0.000000 0.000000
RightUpLeg -1.033581 -12.002576 -4.911536
RightLeg -0.262289 -0.000000 0.000000
RightFoot -9.307350 11.180096 10.844967
RightToeBase -1.213533 -0.000000 0.000000
